# Blender 4.0.2
# www.blender.org
o Cube.LO
v -0.227374 -0.639076 0.222573
v 0.000000 -0.136099 -0.147812
v -0.227374 0.172382 0.222573
v -0.227374 -0.639076 -0.230120
v 0.028837 -0.136099 -0.144972
v -0.227374 0.172382 -0.230120
v 0.225319 -0.639076 0.222573
v 0.056565 -0.136099 -0.136561
v 0.225319 0.172382 0.222573
v 0.225319 -0.639076 -0.230120
v 0.082120 -0.136099 -0.122901
v 0.225319 0.172382 -0.230120
v 0.104519 -0.136099 -0.104519
v 0.122901 -0.136099 -0.082120
v 0.136561 -0.136099 -0.056565
v 0.144972 -0.136099 -0.028837
v 0.147812 -0.136099 0.000000
v 0.144972 -0.136099 0.028837
v 0.136561 -0.136099 0.056565
v 0.122901 -0.136099 0.082120
v 0.104519 -0.136099 0.104519
v 0.082120 -0.136099 0.122901
v 0.056565 -0.136099 0.136561
v 0.028837 -0.136099 0.144972
v 0.000000 -0.136099 0.147812
v -0.028837 -0.136099 0.144972
v -0.056565 -0.136099 0.136561
v -0.082120 -0.136099 0.122901
v -0.104519 -0.136099 0.104519
v -0.122901 -0.136099 0.082120
v -0.136561 -0.136099 0.056565
v -0.144972 -0.136099 0.028837
v -0.147812 -0.136099 0.000000
v -0.144972 -0.136099 -0.028837
v -0.136561 -0.136099 -0.056565
v -0.122901 -0.136099 -0.082120
v -0.104519 -0.136099 -0.104519
v -0.082120 -0.136099 -0.122901
v -0.056565 -0.136099 -0.136561
v -0.028837 -0.136099 -0.144972
v -0.147812 0.172382 0.000000
v -0.144972 0.172382 0.028837
v -0.144972 0.172382 -0.028837
v -0.122901 0.172382 0.082120
v -0.122901 0.172382 -0.082120
v -0.136561 0.172382 0.056565
v -0.136561 0.172382 -0.056565
v -0.082120 0.172382 -0.122901
v -0.028837 0.172382 -0.144972
v -0.056565 0.172382 -0.136561
v 0.028837 0.172382 -0.144972
v 0.082120 0.172382 -0.122901
v 0.056565 0.172382 -0.136561
v 0.000000 0.172382 -0.147812
v -0.104519 0.172382 -0.104519
v -0.104519 0.172382 0.104519
v -0.056565 0.172382 0.136561
v -0.028837 0.172382 0.144972
v -0.082120 0.172382 0.122901
v 0.028837 0.172382 0.144972
v 0.000000 0.172382 0.147812
v 0.082120 0.172382 0.122901
v 0.056565 0.172382 0.136561
v 0.122901 0.172382 0.082120
v 0.122901 0.172382 -0.082120
v 0.147812 0.172382 0.000000
v 0.144972 0.172382 0.028837
v 0.144972 0.172382 -0.028837
v 0.136561 0.172382 -0.056565
v 0.104519 0.172382 0.104519
v 0.136561 0.172382 0.056565
v 0.104519 0.172382 -0.104519
vn -1.0000 -0.0000 -0.0000
vn -0.0000 -0.0000 -1.0000
vn 1.0000 -0.0000 -0.0000
vn -0.0000 -0.0000 1.0000
vn -0.0000 -1.0000 -0.0000
vn -0.0000 1.0000 -0.0000
vn -0.0980 -0.0000 0.9952
vn -0.2903 -0.0000 0.9569
vn -0.4714 -0.0000 0.8819
vn -0.6344 -0.0000 0.7730
vn -0.7730 -0.0000 0.6344
vn -0.8819 -0.0000 0.4714
vn -0.9569 -0.0000 0.2903
vn -0.9952 -0.0000 0.0980
vn -0.9952 -0.0000 -0.0980
vn -0.9569 -0.0000 -0.2903
vn -0.8819 -0.0000 -0.4714
vn -0.7730 -0.0000 -0.6344
vn -0.6344 -0.0000 -0.7730
vn -0.4714 -0.0000 -0.8819
vn -0.2903 -0.0000 -0.9569
vn -0.0980 -0.0000 -0.9952
vn 0.0980 -0.0000 -0.9952
vn 0.2903 -0.0000 -0.9569
vn 0.4714 -0.0000 -0.8819
vn 0.6344 -0.0000 -0.7730
vn 0.7730 -0.0000 -0.6344
vn 0.8819 -0.0000 -0.4714
vn 0.9569 -0.0000 -0.2903
vn 0.9952 -0.0000 -0.0980
vn 0.9952 -0.0000 0.0980
vn 0.9569 -0.0000 0.2903
vn 0.8819 -0.0000 0.4714
vn 0.7730 -0.0000 0.6344
vn 0.6344 -0.0000 0.7730
vn 0.4714 -0.0000 0.8819
vn 0.2903 -0.0000 0.9569
vn 0.0980 -0.0000 0.9952
s 0
f 1//1 3//1 6//1 4//1
f 4//2 6//2 12//2 10//2
f 10//3 12//3 9//3 7//3
f 7//4 9//4 3//4 1//4
f 4//5 10//5 7//5 1//5
f 56//6 3//6 9//6 70//6 62//6 63//6 60//6 61//6 58//6 57//6 59//6
f 70//6 9//6 12//6 6//6 3//6 56//6 44//6 46//6 42//6 41//6 43//6 47//6 45//6 55//6 48//6 50//6 49//6 54//6 51//6 53//6 52//6 72//6 65//6 69//6 68//6 66//6 67//6 71//6 64//6
f 54//7 2//7 5//7 51//7
f 51//8 5//8 8//8 53//8
f 53//9 8//9 11//9 52//9
f 52//10 11//10 13//10 72//10
f 13//11 14//11 65//11 72//11
f 14//12 15//12 69//12 65//12
f 15//13 16//13 68//13 69//13
f 16//14 17//14 66//14 68//14
f 17//15 18//15 67//15 66//15
f 18//16 19//16 71//16 67//16
f 19//17 20//17 64//17 71//17
f 20//18 21//18 70//18 64//18
f 21//19 22//19 62//19 70//19
f 22//20 23//20 63//20 62//20
f 23//21 24//21 60//21 63//21
f 24//22 25//22 61//22 60//22
f 25//23 26//23 58//23 61//23
f 26//24 27//24 57//24 58//24
f 27//25 28//25 59//25 57//25
f 28//26 29//26 56//26 59//26
f 56//27 29//27 30//27 44//27
f 44//28 30//28 31//28 46//28
f 46//29 31//29 32//29 42//29
f 42//30 32//30 33//30 41//30
f 41//31 33//31 34//31 43//31
f 43//32 34//32 35//32 47//32
f 47//33 35//33 36//33 45//33
f 45//34 36//34 37//34 55//34
f 55//35 37//35 38//35 48//35
f 48//36 38//36 39//36 50//36
f 50//37 39//37 40//37 49//37
f 49//38 40//38 2//38 54//38
f 28//6 27//6 26//6 25//6 24//6 23//6 22//6 21//6 20//6 19//6 18//6 17//6 16//6 15//6 14//6 13//6 11//6 8//6 5//6 2//6 40//6 39//6 38//6 37//6 36//6 35//6 34//6 33//6 32//6 31//6 30//6 29//6
