# Blender 4.0.2
# www.blender.org
o Cylinder.LO
v 0.000000 -0.639470 -0.286931
v 0.000000 -0.136099 -0.147812
v 0.000000 0.172275 -0.286931
v 0.055977 -0.639470 -0.281417
v 0.028837 -0.136099 -0.144972
v 0.055977 0.172275 -0.281417
v 0.109804 -0.639470 -0.265089
v 0.056565 -0.136099 -0.136561
v 0.109804 0.172275 -0.265089
v 0.159410 -0.639470 -0.238574
v 0.082120 -0.136099 -0.122901
v 0.159410 0.172275 -0.238574
v 0.202891 -0.639470 -0.202891
v 0.104519 -0.136099 -0.104519
v 0.202891 0.172275 -0.202891
v 0.238574 -0.639470 -0.159410
v 0.122901 -0.136099 -0.082120
v 0.238574 0.172275 -0.159410
v 0.265089 -0.639470 -0.109804
v 0.136561 -0.136099 -0.056565
v 0.265089 0.172275 -0.109804
v 0.281417 -0.639470 -0.055977
v 0.144972 -0.136099 -0.028837
v 0.281417 0.172275 -0.055977
v 0.286931 -0.639470 0.000000
v 0.147812 -0.136099 0.000000
v 0.286931 0.172275 0.000000
v 0.281417 -0.639470 0.055977
v 0.144972 -0.136099 0.028837
v 0.281417 0.172275 0.055977
v 0.136561 -0.136099 0.056565
v 0.265089 -0.639470 0.109804
v 0.265089 0.172275 0.109804
v 0.238574 -0.639470 0.159410
v 0.122901 -0.136099 0.082120
v 0.238574 0.172275 0.159410
v 0.202891 -0.639470 0.202891
v 0.104519 -0.136099 0.104519
v 0.202891 0.172275 0.202891
v 0.159410 -0.639470 0.238574
v 0.082120 -0.136099 0.122901
v 0.159410 0.172275 0.238574
v 0.109804 -0.639470 0.265089
v 0.056565 -0.136099 0.136561
v 0.109804 0.172275 0.265089
v 0.028837 -0.136099 0.144972
v 0.055977 -0.639470 0.281417
v 0.055977 0.172275 0.281417
v 0.000000 -0.639470 0.286931
v 0.000000 -0.136099 0.147812
v 0.000000 0.172275 0.286931
v -0.055977 -0.639470 0.281417
v -0.028837 -0.136099 0.144972
v -0.055977 0.172275 0.281417
v -0.109804 -0.639470 0.265089
v -0.056565 -0.136099 0.136561
v -0.109804 0.172275 0.265089
v -0.159410 -0.639470 0.238574
v -0.082120 -0.136099 0.122901
v -0.159410 0.172275 0.238574
v -0.202891 -0.639470 0.202891
v -0.104519 -0.136099 0.104519
v -0.202891 0.172275 0.202891
v -0.238574 -0.639470 0.159410
v -0.122901 -0.136099 0.082120
v -0.238574 0.172275 0.159410
v -0.265089 -0.639470 0.109804
v -0.136561 -0.136099 0.056565
v -0.265089 0.172275 0.109804
v -0.281417 -0.639470 0.055977
v -0.144972 -0.136099 0.028837
v -0.281417 0.172275 0.055977
v -0.286931 -0.639470 0.000000
v -0.147812 -0.136099 0.000000
v -0.286931 0.172275 0.000000
v -0.281417 -0.639470 -0.055977
v -0.144972 -0.136099 -0.028837
v -0.281417 0.172275 -0.055977
v -0.265089 -0.639470 -0.109804
v -0.136561 -0.136099 -0.056565
v -0.265089 0.172275 -0.109804
v -0.238574 -0.639470 -0.159410
v -0.122901 -0.136099 -0.082120
v -0.238574 0.172275 -0.159410
v -0.202891 -0.639470 -0.202891
v -0.104519 -0.136099 -0.104519
v -0.202891 0.172275 -0.202891
v -0.159410 -0.639470 -0.238574
v -0.082120 -0.136099 -0.122901
v -0.159410 0.172275 -0.238574
v -0.109804 -0.639470 -0.265089
v -0.056565 -0.136099 -0.136561
v -0.109804 0.172275 -0.265089
v -0.055977 -0.639470 -0.281417
v -0.028837 -0.136099 -0.144972
v -0.055977 0.172275 -0.281417
v -0.147812 0.172275 0.000000
v -0.136561 0.172275 0.056565
v -0.144972 0.172275 0.028837
v -0.144972 0.172275 -0.028837
v -0.104519 0.172275 0.104519
v -0.122901 0.172275 0.082120
v -0.122901 0.172275 -0.082120
v -0.136561 0.172275 -0.056565
v -0.104519 0.172275 -0.104519
v -0.056565 0.172275 0.136561
v -0.082120 0.172275 0.122901
v -0.082120 0.172275 -0.122901
v 0.000000 0.172275 -0.147812
v -0.028837 0.172275 -0.144972
v 0.056565 0.172275 -0.136561
v 0.028837 0.172275 -0.144972
v -0.056565 0.172275 -0.136561
v -0.028837 0.172275 0.144972
v 0.028837 0.172275 0.144972
v 0.000000 0.172275 0.147812
v 0.082120 0.172275 0.122901
v 0.082120 0.172275 -0.122901
v 0.056565 0.172275 0.136561
v 0.104519 0.172275 -0.104519
v 0.122901 0.172275 0.082120
v 0.122901 0.172275 -0.082120
v 0.147812 0.172275 0.000000
v 0.144972 0.172275 -0.028837
v 0.144972 0.172275 0.028837
v 0.136561 0.172275 -0.056565
v 0.136561 0.172275 0.056565
v 0.104519 0.172275 0.104519
vn 0.0980 -0.0000 -0.9952
vn 0.2903 -0.0000 -0.9569
vn 0.4714 -0.0000 -0.8819
vn 0.6344 -0.0000 -0.7730
vn 0.7730 -0.0000 -0.6344
vn 0.8819 -0.0000 -0.4714
vn 0.9569 -0.0000 -0.2903
vn 0.9952 -0.0000 -0.0980
vn 0.9952 -0.0000 0.0980
vn 0.9569 -0.0000 0.2903
vn 0.8819 -0.0000 0.4714
vn 0.7730 -0.0000 0.6344
vn 0.6344 -0.0000 0.7730
vn 0.4714 -0.0000 0.8819
vn 0.2903 -0.0000 0.9569
vn 0.0980 -0.0000 0.9952
vn -0.0980 -0.0000 0.9952
vn -0.2903 -0.0000 0.9569
vn -0.4714 -0.0000 0.8819
vn -0.6344 -0.0000 0.7730
vn -0.7730 -0.0000 0.6344
vn -0.8819 -0.0000 0.4714
vn -0.9569 -0.0000 0.2903
vn -0.9952 -0.0000 0.0980
vn -0.9952 -0.0000 -0.0980
vn -0.9569 -0.0000 -0.2903
vn -0.8819 -0.0000 -0.4714
vn -0.7730 -0.0000 -0.6344
vn -0.6344 -0.0000 -0.7730
vn -0.4714 -0.0000 -0.8819
vn -0.0000 1.0000 -0.0000
vn -0.2903 -0.0000 -0.9569
vn -0.0980 -0.0000 -0.9952
vn -0.0000 -1.0000 -0.0000
vt 0.993053 0.440544
vt 0.993053 0.833368
vt 0.975697 0.833368
vt 0.975697 0.440544
vt 0.961803 0.440544
vt 0.961803 0.833368
vt 0.944447 0.833368
vt 0.944447 0.440544
vt 0.930553 0.440544
vt 0.930553 0.833368
vt 0.913197 0.833368
vt 0.913197 0.440544
vt 0.899303 0.440544
vt 0.899303 0.833368
vt 0.881947 0.833368
vt 0.881947 0.440544
vt 0.868053 0.440544
vt 0.868053 0.833368
vt 0.850697 0.833368
vt 0.850697 0.440544
vt 0.836803 0.440544
vt 0.836803 0.833368
vt 0.819447 0.833368
vt 0.819447 0.440544
vt 0.805553 0.440544
vt 0.805553 0.833368
vt 0.788197 0.833368
vt 0.788197 0.440544
vt 0.774303 0.440544
vt 0.774303 0.833368
vt 0.756947 0.833368
vt 0.756947 0.440544
vt 0.743053 0.440544
vt 0.743053 0.833368
vt 0.725697 0.833368
vt 0.725697 0.440544
vt 0.711803 0.440544
vt 0.711803 0.833368
vt 0.694447 0.833368
vt 0.694447 0.440544
vt 0.680553 0.440544
vt 0.680553 0.833368
vt 0.663197 0.833368
vt 0.663197 0.440544
vt 0.649303 0.440544
vt 0.649303 0.833368
vt 0.631947 0.833368
vt 0.631947 0.440544
vt 0.618053 0.440544
vt 0.618053 0.833368
vt 0.600697 0.833368
vt 0.600697 0.440544
vt 0.586803 0.440544
vt 0.586803 0.833368
vt 0.569447 0.833368
vt 0.569447 0.440544
vt 0.555553 0.440544
vt 0.555553 0.833368
vt 0.538197 0.833368
vt 0.538197 0.440544
vt 0.524303 0.440544
vt 0.524303 0.833368
vt 0.506947 0.833368
vt 0.506947 0.440544
vt 0.493053 0.440544
vt 0.493053 0.833368
vt 0.475697 0.833368
vt 0.475697 0.440544
vt 0.461803 0.440544
vt 0.461803 0.833368
vt 0.444447 0.833368
vt 0.444447 0.440544
vt 0.430553 0.440544
vt 0.430553 0.833368
vt 0.413197 0.833368
vt 0.413197 0.440544
vt 0.399303 0.440544
vt 0.399303 0.833368
vt 0.381947 0.833368
vt 0.381947 0.440544
vt 0.368053 0.440544
vt 0.368053 0.833368
vt 0.350697 0.833368
vt 0.350697 0.440544
vt 0.336803 0.440544
vt 0.336803 0.833368
vt 0.319447 0.833368
vt 0.319447 0.440544
vt 0.305553 0.440544
vt 0.305553 0.833368
vt 0.288197 0.833368
vt 0.288197 0.440544
vt 0.274303 0.440544
vt 0.274303 0.833368
vt 0.256947 0.833368
vt 0.256947 0.440544
vt 0.243053 0.440544
vt 0.243053 0.833368
vt 0.225697 0.833368
vt 0.225697 0.440544
vt 0.211803 0.440544
vt 0.211803 0.833368
vt 0.194447 0.833368
vt 0.194447 0.440544
vt 0.180553 0.440544
vt 0.180553 0.833368
vt 0.163197 0.833368
vt 0.163197 0.440544
vt 0.149303 0.440544
vt 0.149303 0.833368
vt 0.131947 0.833368
vt 0.131947 0.440544
vt 0.118053 0.440544
vt 0.118053 0.833368
vt 0.100697 0.833368
vt 0.100697 0.440544
vt 0.086803 0.440544
vt 0.086803 0.833368
vt 0.069447 0.833368
vt 0.069447 0.440544
vt 0.126848 0.198989
vt 0.139166 0.175943
vt 0.155743 0.155743
vt 0.175943 0.139166
vt 0.198989 0.126848
vt 0.223722 0.186558
vt 0.211850 0.192904
vt 0.201444 0.201444
vt 0.192904 0.211850
vt 0.186558 0.223722
vt 0.182650 0.236603
vt 0.181331 0.250000
vt 0.182650 0.263397
vt 0.186558 0.276278
vt 0.126848 0.301011
vt 0.119262 0.276005
vt 0.116701 0.250000
vt 0.119262 0.223995
vt 0.344257 0.344257
vt 0.324057 0.360834
vt 0.301011 0.373152
vt 0.276005 0.380738
vt 0.250000 0.383299
vt 0.223995 0.380738
vt 0.198989 0.373152
vt 0.175943 0.360834
vt 0.155743 0.344257
vt 0.139166 0.324057
vt 0.192904 0.288150
vt 0.201444 0.298556
vt 0.211850 0.307096
vt 0.223722 0.313442
vt 0.236603 0.317349
vt 0.250000 0.318669
vt 0.263397 0.317349
vt 0.276278 0.313442
vt 0.288150 0.307096
vt 0.298556 0.298556
vt 0.307096 0.288150
vt 0.313442 0.276278
vt 0.317349 0.263397
vt 0.318669 0.250000
vt 0.317350 0.236603
vt 0.313442 0.223722
vt 0.307096 0.211850
vt 0.298556 0.201444
vt 0.288150 0.192904
vt 0.276278 0.186558
vt 0.263397 0.182651
vt 0.250000 0.181331
vt 0.236603 0.182651
vt 0.223995 0.119262
vt 0.250000 0.116701
vt 0.276005 0.119262
vt 0.301011 0.126848
vt 0.324057 0.139166
vt 0.344257 0.155743
vt 0.360834 0.175943
vt 0.373152 0.198989
vt 0.380738 0.223995
vt 0.383299 0.250000
vt 0.380738 0.276005
vt 0.373152 0.301011
vt 0.360834 0.324057
vt 0.055553 0.440544
vt 0.055553 0.833368
vt 0.038197 0.833368
vt 0.038197 0.440544
vt 0.024303 0.440544
vt 0.024303 0.833368
vt 0.006947 0.833368
vt 0.006947 0.440544
vt 0.723995 0.380738
vt 0.750000 0.383299
vt 0.776005 0.380738
vt 0.801011 0.373152
vt 0.824057 0.360834
vt 0.844257 0.344257
vt 0.860834 0.324057
vt 0.873152 0.301011
vt 0.880738 0.276005
vt 0.883299 0.250000
vt 0.880738 0.223995
vt 0.873152 0.198989
vt 0.860834 0.175943
vt 0.844257 0.155743
vt 0.824057 0.139166
vt 0.801011 0.126848
vt 0.776005 0.119262
vt 0.750000 0.116701
vt 0.723995 0.119262
vt 0.698989 0.126848
vt 0.675943 0.139166
vt 0.655743 0.155743
vt 0.639166 0.175943
vt 0.626848 0.198989
vt 0.619262 0.223995
vt 0.616701 0.250000
vt 0.619262 0.276005
vt 0.626848 0.301011
vt 0.639166 0.324057
vt 0.655743 0.344257
vt 0.675943 0.360834
vt 0.698989 0.373152
vt 0.993053 0.730227
vt 0.975697 0.730227
vt 0.961803 0.730227
vt 0.944447 0.730227
vt 0.930553 0.730227
vt 0.913197 0.730227
vt 0.899303 0.730227
vt 0.881947 0.730227
vt 0.850697 0.730227
vt 0.868053 0.730227
vt 0.819447 0.730227
vt 0.836803 0.730227
vt 0.788197 0.730227
vt 0.805553 0.730227
vt 0.756947 0.730227
vt 0.774303 0.730227
vt 0.725697 0.730227
vt 0.743053 0.730227
vt 0.694447 0.730227
vt 0.711803 0.730227
vt 0.663197 0.730227
vt 0.680553 0.730227
vt 0.631947 0.730227
vt 0.649303 0.730227
vt 0.600697 0.730227
vt 0.618053 0.730227
vt 0.569447 0.730227
vt 0.586803 0.730227
vt 0.538197 0.730227
vt 0.555553 0.730227
vt 0.506947 0.730227
vt 0.524303 0.730227
vt 0.475697 0.730227
vt 0.493053 0.730227
vt 0.444447 0.730227
vt 0.461803 0.730227
vt 0.413197 0.730227
vt 0.430553 0.730227
vt 0.381947 0.730227
vt 0.399303 0.730227
vt 0.368053 0.730227
vt 0.350697 0.730227
vt 0.336803 0.730227
vt 0.319447 0.730227
vt 0.305553 0.730227
vt 0.288197 0.730227
vt 0.274303 0.730227
vt 0.256947 0.730227
vt 0.243053 0.730227
vt 0.225697 0.730227
vt 0.211803 0.730227
vt 0.194447 0.730227
vt 0.180553 0.730227
vt 0.163197 0.730227
vt 0.149303 0.730227
vt 0.131947 0.730227
vt 0.118053 0.730227
vt 0.100697 0.730227
vt 0.086803 0.730227
vt 0.069447 0.730227
vt 0.055553 0.730227
vt 0.038197 0.730227
vt 0.024303 0.730227
vt 0.006947 0.730227
s 0
f 1/1/1 3/2/1 6/3/1 4/4/1
f 4/5/2 6/6/2 9/7/2 7/8/2
f 7/9/3 9/10/3 12/11/3 10/12/3
f 10/13/4 12/14/4 15/15/4 13/16/4
f 13/17/5 15/18/5 18/19/5 16/20/5
f 16/21/6 18/22/6 21/23/6 19/24/6
f 19/25/7 21/26/7 24/27/7 22/28/7
f 22/29/8 24/30/8 27/31/8 25/32/8
f 25/33/9 27/34/9 30/35/9 28/36/9
f 28/37/10 30/38/10 33/39/10 32/40/10
f 32/41/11 33/42/11 36/43/11 34/44/11
f 34/45/12 36/46/12 39/47/12 37/48/12
f 37/49/13 39/50/13 42/51/13 40/52/13
f 40/53/14 42/54/14 45/55/14 43/56/14
f 43/57/15 45/58/15 48/59/15 47/60/15
f 47/61/16 48/62/16 51/63/16 49/64/16
f 49/65/17 51/66/17 54/67/17 52/68/17
f 52/69/18 54/70/18 57/71/18 55/72/18
f 55/73/19 57/74/19 60/75/19 58/76/19
f 58/77/20 60/78/20 63/79/20 61/80/20
f 61/81/21 63/82/21 66/83/21 64/84/21
f 64/85/22 66/86/22 69/87/22 67/88/22
f 67/89/23 69/90/23 72/91/23 70/92/23
f 70/93/24 72/94/24 75/95/24 73/96/24
f 73/97/25 75/98/25 78/99/25 76/100/25
f 76/101/26 78/102/26 81/103/26 79/104/26
f 79/105/27 81/106/27 84/107/27 82/108/27
f 82/109/28 84/110/28 87/111/28 85/112/28
f 85/113/29 87/114/29 90/115/29 88/116/29
f 88/117/30 90/118/30 93/119/30 91/120/30
f 69/121/31 66/122/31 63/123/31 60/124/31 57/125/31 106/126/31 107/127/31 101/128/31 102/129/31 98/130/31 99/131/31 97/132/31 100/133/31 104/134/31 81/135/31 78/136/31 75/137/31 72/138/31
f 15/139/31 12/140/31 9/141/31 6/142/31 3/143/31 96/144/31 93/145/31 90/146/31 87/147/31 84/148/31 81/135/31 104/134/31 103/149/31 105/150/31 108/151/31 113/152/31 110/153/31 109/154/31 112/155/31 111/156/31 118/157/31 120/158/31 122/159/31 126/160/31 124/161/31 123/162/31 125/163/31 127/164/31 121/165/31 128/166/31 117/167/31 119/168/31 115/169/31 116/170/31 114/171/31 106/126/31 57/125/31 54/172/31 51/173/31 48/174/31 45/175/31 42/176/31 39/177/31 36/178/31 33/179/31 30/180/31 27/181/31 24/182/31 21/183/31 18/184/31
f 91/185/32 93/186/32 96/187/32 94/188/32
f 94/189/33 96/190/33 3/191/33 1/192/33
f 94/193/34 1/194/34 4/195/34 7/196/34 10/197/34 13/198/34 16/199/34 19/200/34 22/201/34 25/202/34 28/203/34 32/204/34 34/205/34 37/206/34 40/207/34 43/208/34 47/209/34 49/210/34 52/211/34 55/212/34 58/213/34 61/214/34 64/215/34 67/216/34 70/217/34 73/218/34 76/219/34 79/220/34 82/221/34 85/222/34 88/223/34 91/224/34
f 109/225/17 2/1/17 5/4/17 112/226/17
f 112/227/18 5/5/18 8/8/18 111/228/18
f 111/229/19 8/9/19 11/12/19 118/230/19
f 118/231/20 11/13/20 14/16/20 120/232/20
f 14/17/21 17/20/21 122/233/21 120/234/21
f 17/21/22 20/24/22 126/235/22 122/236/22
f 20/25/23 23/28/23 124/237/23 126/238/23
f 23/29/24 26/32/24 123/239/24 124/240/24
f 26/33/25 29/36/25 125/241/25 123/242/25
f 29/37/26 31/40/26 127/243/26 125/244/26
f 31/41/27 35/44/27 121/245/27 127/246/27
f 35/45/28 38/48/28 128/247/28 121/248/28
f 38/49/29 41/52/29 117/249/29 128/250/29
f 41/53/30 44/56/30 119/251/30 117/252/30
f 44/57/32 46/60/32 115/253/32 119/254/32
f 46/61/33 50/64/33 116/255/33 115/256/33
f 50/65/1 53/68/1 114/257/1 116/258/1
f 53/69/2 56/72/2 106/259/2 114/260/2
f 56/73/3 59/76/3 107/261/3 106/262/3
f 59/77/4 62/80/4 101/263/4 107/264/4
f 101/265/5 62/81/5 65/84/5 102/266/5
f 102/267/6 65/85/6 68/88/6 98/268/6
f 98/269/7 68/89/7 71/92/7 99/270/7
f 99/271/8 71/93/8 74/96/8 97/272/8
f 97/273/9 74/97/9 77/100/9 100/274/9
f 100/275/10 77/101/10 80/104/10 104/276/10
f 104/277/11 80/105/11 83/108/11 103/278/11
f 103/279/12 83/109/12 86/112/12 105/280/12
f 105/281/13 86/113/13 89/116/13 108/282/13
f 108/283/14 89/117/14 92/120/14 113/284/14
f 113/285/15 92/185/15 95/188/15 110/286/15
f 110/287/16 95/189/16 2/192/16 109/288/16
f 41/207/31 38/206/31 35/205/31 31/204/31 29/203/31 26/202/31 23/201/31 20/200/31 17/199/31 14/198/31 11/197/31 8/196/31 5/195/31 2/194/31 95/193/31 92/224/31 89/223/31 86/222/31 83/221/31 80/220/31 77/219/31 74/218/31 71/217/31 68/216/31 65/215/31 62/214/31 59/213/31 56/212/31 53/211/31 50/210/31 46/209/31 44/208/31
